<svg width="257" height="9" viewBox="0 0 257 9" fill="none" xmlns="http://www.w3.org/2000/svg">
<path d="M1 4.5C6.66667 -0.166667 12.3333 -0.166667 18 4.5C23.6667 9.16667 29.3333 9.16667 35 4.5C40.6667 -0.166667 46.3333 -0.166667 52 4.5C57.6667 9.16667 63.3333 9.16667 69 4.5C74.6667 -0.166667 80.3333 -0.166667 86 4.5C91.6667 9.16667 97.3333 9.16667 103 4.5C108.667 -0.166667 114.333 -0.166667 120 4.5C125.667 9.16667 131.333 9.16667 137 4.5C142.667 -0.166667 148.333 -0.166667 154 4.5C159.667 9.16667 165.333 9.16667 171 4.5C176.667 -0.166667 182.333 -0.166667 188 4.5C193.667 9.16667 199.333 9.16667 205 4.5C210.667 -0.166667 216.333 -0.166667 222 4.5C227.667 9.16667 233.333 9.16667 239 4.5C244.667 -0.166667 250.333 -0.166667 256 4.5" stroke="#738494"/>
</svg>
