<svg width="1117" height="12" viewBox="0 0 1117 12" fill="none" xmlns="http://www.w3.org/2000/svg">
<rect width="1117" height="12" fill="#E5E5E5"/>
<g clip-path="url(#clip0_0_1)">
<rect width="1440" height="4436" transform="translate(-161 -1688)" fill="white"/>
<path d="M1 6C10.2917 -0.666667 19.5833 -0.666667 28.875 6C38.1667 12.6667 47.4583 12.6667 56.75 6C66.0417 -0.666667 75.3333 -0.666667 84.625 6C93.9167 12.6667 103.208 12.6667 112.5 6C121.792 -0.666667 131.083 -0.666667 140.375 6C149.667 12.6667 158.958 12.6667 168.25 6C177.542 -0.666667 186.833 -0.666667 196.125 6C205.417 12.6667 214.708 12.6667 224 6C233.292 -0.666667 242.583 -0.666667 251.875 6C261.167 12.6667 270.458 12.6667 279.75 6C289.042 -0.666667 298.333 -0.666667 307.625 6C316.917 12.6667 326.208 12.6667 335.5 6C344.792 -0.666667 354.083 -0.666667 363.375 6C372.667 12.6667 381.958 12.6667 391.25 6C400.542 -0.666667 409.833 -0.666667 419.125 6C428.417 12.6667 437.708 12.6667 447 6C456.292 -0.666667 465.583 -0.666667 474.875 6C484.167 12.6667 493.458 12.6667 502.75 6C512.042 -0.666667 521.333 -0.666667 530.625 6C539.917 12.6667 549.208 12.6667 558.5 6C567.792 -0.666667 577.083 -0.666667 586.375 6C595.667 12.6667 604.958 12.6667 614.25 6C623.542 -0.666667 632.833 -0.666667 642.125 6C651.417 12.6667 660.708 12.6667 670 6C679.292 -0.666667 688.583 -0.666667 697.875 6C707.167 12.6667 716.458 12.6667 725.75 6C735.042 -0.666667 744.333 -0.666667 753.625 6C762.917 12.6667 772.208 12.6667 781.5 6C790.792 -0.666667 800.083 -0.666667 809.375 6C818.667 12.6667 827.958 12.6667 837.25 6C846.542 -0.666667 855.833 -0.666667 865.125 6C874.417 12.6667 883.708 12.6667 893 6C902.292 -0.666667 911.583 -0.666667 920.875 6C930.167 12.6667 939.458 12.6667 948.75 6C958.042 -0.666667 967.333 -0.666667 976.625 6C985.917 12.6667 995.208 12.6667 1004.5 6C1013.79 -0.666667 1023.08 -0.666667 1032.38 6C1041.67 12.6667 1050.96 12.6667 1060.25 6C1069.54 -0.666667 1078.83 -0.666667 1088.12 6C1097.42 12.6667 1106.71 12.6667 1116 6" stroke="#1D1D1C" stroke-opacity="0.5"/>
</g>
<defs>
<clipPath id="clip0_0_1">
<rect width="1440" height="4436" fill="white" transform="translate(-161 -1688)"/>
</clipPath>
</defs>
</svg>
