<svg width="29" height="29" viewBox="0 0 29 29" fill="none" xmlns="http://www.w3.org/2000/svg">
<path fill-rule="evenodd" clip-rule="evenodd" d="M25.375 4.53125C25.375 4.2909 25.2795 4.06039 25.1096 3.89043C24.9396 3.72048 24.7091 3.625 24.4687 3.625H13.5937C13.3534 3.625 13.1229 3.72048 12.9529 3.89043C12.783 4.06039 12.6875 4.2909 12.6875 4.53125C12.6875 4.7716 12.783 5.00211 12.9529 5.17207C13.1229 5.34202 13.3534 5.4375 13.5937 5.4375H22.281L3.88961 23.8271C3.80535 23.9114 3.73851 24.0114 3.69291 24.1215C3.64731 24.2316 3.62384 24.3496 3.62384 24.4688C3.62384 24.5879 3.64731 24.7059 3.69291 24.816C3.73851 24.9261 3.80535 25.0261 3.88961 25.1104C3.97387 25.1946 4.0739 25.2615 4.18399 25.3071C4.29408 25.3527 4.41207 25.3761 4.53124 25.3761C4.6504 25.3761 4.76839 25.3527 4.87848 25.3071C4.98857 25.2615 5.0886 25.1946 5.17286 25.1104L23.5625 6.71894V15.4062C23.5625 15.6466 23.658 15.8771 23.8279 16.0471C23.9979 16.217 24.2284 16.3125 24.4687 16.3125C24.7091 16.3125 24.9396 16.217 25.1096 16.0471C25.2795 15.8771 25.375 15.6466 25.375 15.4062V4.53125Z" fill="black"/>
</svg>
