<svg width="44" height="44" viewBox="0 0 44 44" fill="none" xmlns="http://www.w3.org/2000/svg">
<circle cx="22" cy="22" r="21.5" fill="#1D1D1C" stroke="#1D1D1C"/>
<path d="M22.5466 31.26C21.9199 31.26 21.3599 31.1333 20.8666 30.88C20.3866 30.6133 19.9532 30.28 19.5666 29.88C19.1932 29.4667 18.7532 28.9133 18.2466 28.22L17.7666 27.56C17.3399 26.9733 16.9799 26.5133 16.6866 26.18C16.3932 25.8467 16.0266 25.5667 15.5866 25.34C15.1599 25.1133 14.6532 25 14.0666 25H13.3866V29.22C13.3866 29.5133 13.4132 29.7333 13.4666 29.88C13.5332 30.0133 13.6466 30.12 13.8066 30.2C13.9799 30.2667 14.2599 30.3333 14.6466 30.4L15.8266 30.62V31H8.98656V30.62L10.1866 30.4C10.5599 30.3333 10.8266 30.2667 10.9866 30.2C11.1599 30.12 11.2732 30.0133 11.3266 29.88C11.3932 29.7333 11.4266 29.5133 11.4266 29.22V19.32C11.4266 19.0267 11.3932 18.8133 11.3266 18.68C11.2732 18.5333 11.1599 18.4267 10.9866 18.36C10.8266 18.28 10.5599 18.2067 10.1866 18.14L8.98656 17.92V17.54H14.5866C16.4132 17.54 17.8266 17.8733 18.8266 18.54C19.8266 19.2067 20.3266 20.1133 20.3266 21.26C20.3266 22.1533 19.9666 22.9067 19.2466 23.52C18.5399 24.12 17.6599 24.48 16.6066 24.6V24.66C17.1266 24.66 17.5932 24.7867 18.0066 25.04C18.4199 25.28 18.7732 25.58 19.0666 25.94C19.3599 26.3 19.7266 26.8 20.1666 27.44C20.1932 27.48 20.2266 27.5333 20.2666 27.6C20.3199 27.6667 20.3732 27.74 20.4266 27.82C21.0932 28.78 21.6666 29.5067 22.1466 30C22.6266 30.48 23.1332 30.72 23.6666 30.72V31.1C23.3066 31.2067 22.9332 31.26 22.5466 31.26ZM14.5866 24.42C15.7199 24.42 16.6066 24.1467 17.2466 23.6C17.8999 23.0533 18.2266 22.3067 18.2266 21.36C18.2266 20.28 17.8799 19.46 17.1866 18.9C16.5066 18.3267 15.5532 18.04 14.3266 18.04H13.3866V24.42H14.5866Z" fill="white"/>
<path d="M35.5433 24.62V25H28.9033V24.62L29.9633 24.44C30.3633 24.3733 30.6433 24.2933 30.8033 24.2C30.9633 24.1067 31.0433 23.98 31.0433 23.82C31.0433 23.6867 30.9633 23.4133 30.8033 23L29.7833 20.42H24.8833L23.6633 23.38C23.5833 23.5533 23.5433 23.7067 23.5433 23.84C23.5433 24.12 23.7766 24.3 24.2433 24.38L25.6233 24.62V25H20.4633V24.62L21.4433 24.46C21.8566 24.38 22.1766 24.2533 22.4033 24.08C22.6433 23.9067 22.8233 23.66 22.9433 23.34L27.0033 13.48L26.5633 12.3C26.9766 12.2867 27.3033 12.14 27.5433 11.86C27.7966 11.5667 27.9233 11.2933 27.9233 11.04H28.1233L33.0633 23C33.2633 23.4933 33.4833 23.84 33.7233 24.04C33.9633 24.24 34.2899 24.38 34.7033 24.46L35.5433 24.62ZM25.1633 19.78H29.5233L27.3833 14.38L25.1633 19.78Z" fill="white"/>
</svg>
